<?xml version="1.0" standalone="no"?>
<!DOCTYPE svg PUBLIC "-//W3C//DTD SVG 20010904//EN"
 "http://www.w3.org/TR/2001/REC-SVG-20010904/DTD/svg10.dtd">
<svg version="1.0" xmlns="http://www.w3.org/2000/svg"
 width="50pt" height="50pt" viewBox="0 0 372.000000 366.000000"
 preserveAspectRatio="xMidYMid meet">

<g transform="translate(0.000000,366.000000) scale(0.100000,-0.100000)"
fill="#000000" stroke="none">
<path d="M1820 3621 c-36 -4 -94 -16 -130 -28 -36 -12 -110 -33 -165 -48 -104
-27 -244 -90 -450 -202 -94 -51 -139 -84 -205 -148 -89 -85 -273 -245 -301
-261 -69 -39 -247 -237 -264 -294 -4 -14 -23 -50 -41 -80 -19 -30 -45 -89 -59
-130 -25 -71 -90 -335 -101 -410 -3 -19 -17 -80 -30 -135 -23 -92 -24 -112
-18 -250 7 -178 8 -183 23 -260 46 -225 67 -309 96 -370 12 -27 30 -75 39
-105 9 -30 27 -66 40 -80 34 -38 131 -198 182 -299 31 -64 55 -99 82 -118 20
-15 67 -53 104 -83 53 -44 83 -61 155 -84 48 -15 124 -43 168 -61 123 -51 237
-78 375 -90 41 -4 102 -14 135 -22 163 -42 395 -34 564 19 53 16 123 34 156
38 38 5 92 25 150 53 49 25 115 57 145 70 30 13 105 59 165 102 61 43 137 96
170 118 125 85 243 187 288 249 25 35 102 121 172 192 134 135 148 157 189
300 9 31 36 79 65 117 27 36 66 106 88 159 37 87 42 110 58 268 26 255 9 409
-75 667 -61 188 -129 310 -228 411 -26 27 -67 74 -89 105 -77 104 -386 365
-503 424 -30 15 -100 58 -155 95 -102 68 -170 98 -305 132 -133 33 -367 52
-490 39z m170 -272 c0 -55 3 -64 29 -89 l30 -27 -28 -33 -28 -34 -6 48 c-8 59
-40 106 -71 106 -18 0 -34 -19 -76 -87 -80 -131 -183 -261 -334 -421 -171
-181 -234 -269 -341 -473 -88 -166 -117 -213 -217 -351 -31 -42 -104 -158
-163 -257 -158 -265 -332 -486 -366 -465 -14 8 -48 83 -49 105 0 22 139 202
208 270 40 38 71 82 102 144 25 49 69 128 99 175 30 47 77 126 106 175 104
179 161 268 233 358 68 86 167 231 325 475 53 81 73 104 95 108 20 4 35 19 54
52 30 54 64 88 93 94 31 5 47 46 41 109 -3 36 -1 60 6 67 8 8 55 12 135 12
l123 0 0 -61z m234 30 c78 -11 105 -23 161 -72 33 -29 38 -37 30 -55 -6 -12
-89 -101 -185 -198 -96 -97 -215 -230 -265 -294 -212 -276 -598 -738 -618
-739 -12 -1 64 136 126 229 85 128 295 396 460 590 210 246 241 277 291 292
55 16 66 25 66 60 0 46 -30 127 -53 143 -24 17 -73 20 -82 5 -13 -22 -43 -10
-54 21 -15 43 -15 42 22 35 17 -4 63 -11 101 -17z m-739 -76 c-10 -16 -25 -37
-35 -48 -9 -11 -47 -64 -85 -117 -73 -105 -75 -106 -124 -53 -38 41 -71 31
-99 -29 -13 -27 -68 -106 -123 -175 -55 -69 -128 -168 -162 -219 -34 -52 -63
-89 -65 -83 -7 20 30 115 57 151 15 19 39 56 54 82 15 26 48 62 73 80 42 30
74 72 74 97 0 6 -12 22 -27 35 -17 16 -24 29 -18 34 158 132 205 162 365 223
19 7 49 21 65 31 17 10 38 18 49 18 18 0 18 -1 1 -27z m505 -149 c0 -10 -134
-154 -138 -149 -6 6 39 74 79 119 27 31 59 48 59 30z m500 -119 c19 -22 6 -55
-57 -141 -82 -114 -96 -134 -223 -314 -153 -216 -239 -319 -372 -442 -61 -57
-140 -141 -176 -188 -36 -47 -102 -126 -147 -176 -170 -193 -205 -234 -342
-404 -77 -96 -150 -184 -162 -194 -22 -20 -22 -20 -14 1 11 29 94 172 184 318
100 161 280 402 410 546 109 121 243 285 435 534 157 203 244 306 339 398 80
78 103 89 125 62z m226 -22 c18 -24 17 -43 -3 -65 -37 -41 -54 -14 -31 49 14
38 16 39 34 16z m252 -72 c2 -14 -2 -21 -12 -21 -17 0 -36 29 -36 56 0 15 2
15 23 2 12 -9 23 -25 25 -37z m-114 -200 c11 -17 -63 -103 -209 -246 -106
-104 -158 -164 -203 -235 -111 -171 -146 -221 -228 -324 -79 -99 -215 -277
-338 -441 -54 -72 -407 -462 -551 -608 -33 -35 -67 -81 -82 -115 -36 -82 -59
-110 -113 -137 -57 -29 -116 -95 -132 -147 -12 -41 -48 -55 -48 -19 0 41 23
77 104 160 80 83 188 221 331 421 86 120 124 161 205 215 82 55 168 141 223
225 23 36 52 79 63 95 12 17 47 73 77 126 31 52 94 140 139 195 46 54 94 115
108 135 36 52 99 135 219 284 187 232 244 297 321 361 71 61 102 75 114 55z
m320 -22 c15 -17 34 -45 42 -61 16 -31 19 -28 -72 -108 -16 -14 -65 -68 -109
-120 -44 -52 -111 -128 -150 -170 -41 -45 -90 -113 -119 -166 -62 -112 -140
-224 -236 -338 -41 -49 -111 -133 -155 -187 -130 -159 -426 -509 -485 -575
-30 -33 -124 -138 -208 -232 -85 -95 -158 -172 -163 -172 -20 0 -7 28 43 96
29 39 77 104 106 145 138 194 286 377 379 466 68 66 120 127 158 188 110 171
179 270 264 379 86 110 369 419 449 490 40 36 42 41 42 93 0 34 -7 66 -17 84
-16 27 -16 30 3 56 23 30 31 35 93 54 38 12 49 21 69 62 14 26 28 47 32 47 5
0 20 -14 34 -31z m-2584 -149 c0 -6 -16 -27 -35 -48 -28 -30 -35 -33 -35 -18
0 11 12 33 27 48 28 29 43 35 43 18z m2739 -123 c6 -8 14 -27 17 -43 5 -27 1
-32 -58 -70 -52 -33 -75 -57 -127 -135 -76 -112 -226 -309 -318 -417 -36 -42
-90 -111 -119 -152 -55 -79 -251 -316 -468 -566 -71 -82 -163 -201 -204 -264
-101 -155 -125 -182 -274 -321 -112 -103 -134 -119 -163 -119 -19 0 -36 4 -39
9 -6 10 95 156 178 258 31 38 92 115 137 173 78 101 145 180 274 320 33 36 81
92 107 125 26 33 71 83 101 112 30 29 91 99 136 155 44 57 117 144 161 193 44
50 95 115 112 145 50 88 117 181 169 235 26 28 72 82 101 121 29 40 80 94 113
122 33 27 75 68 93 91 35 43 52 50 71 28z m-2698 -169 c-45 -91 -85 -147 -97
-136 -13 13 23 87 77 158 29 38 55 67 57 65 3 -2 -14 -41 -37 -87z m2566 -355
c-20 -37 -89 -124 -214 -265 -57 -64 -103 -120 -103 -126 0 -6 -24 -37 -53
-69 -29 -32 -74 -85 -99 -118 -25 -34 -75 -88 -110 -121 -36 -33 -92 -94 -126
-135 -68 -82 -160 -174 -168 -166 -5 5 145 182 234 277 23 25 79 92 125 149
166 210 273 337 324 384 28 27 77 86 107 132 53 80 87 114 94 95 2 -5 -3 -21
-11 -37z m206 -75 c-11 -100 -23 -136 -53 -148 -27 -11 -159 -165 -268 -313
-123 -167 -293 -349 -424 -455 -42 -34 -121 -105 -176 -157 -103 -100 -132
-124 -144 -125 -23 -1 5 36 130 164 75 78 168 180 207 227 38 46 104 118 146
159 95 94 222 251 324 400 67 99 236 290 256 290 4 0 5 -19 2 -42z m-2263
-115 c0 -3 -6 -14 -13 -22 -24 -28 -91 -140 -204 -341 -180 -318 -256 -430
-295 -430 -31 0 -21 42 21 93 22 26 65 98 96 160 78 153 120 222 175 287 25
30 82 101 125 158 70 91 95 117 95 95z m446 -181 c-50 -71 -367 -507 -460
-632 -62 -83 -300 -333 -331 -348 -11 -5 -26 -7 -32 -5 -25 9 -12 30 26 45 21
9 46 26 54 39 8 13 41 69 73 124 71 122 114 179 269 360 67 77 176 206 243
287 115 138 190 214 201 203 2 -3 -17 -35 -43 -73z m1614 -366 c0 -28 -31 -66
-181 -221 -63 -66 -135 -141 -158 -167 -43 -47 -180 -158 -195 -158 -5 0 -38
-22 -75 -48 -90 -66 -191 -132 -202 -132 -23 0 -1 29 84 109 50 49 110 103
132 122 22 18 65 56 95 84 30 28 82 71 115 95 33 24 128 113 212 198 83 85
157 151 162 147 6 -3 11 -17 11 -29z m-976 -752 c9 -26 13 -50 11 -54 -7 -12
-94 -40 -122 -40 -13 0 -23 4 -23 9 0 11 102 131 112 131 3 0 13 -21 22 -46z
m-892 -96 c3 -24 4 -44 3 -46 -6 -8 -54 11 -59 23 -5 14 29 65 44 65 4 0 10
-19 12 -42z m478 -33 c0 -8 -4 -15 -9 -15 -13 0 -22 16 -14 24 11 11 23 6 23
-9z"/>
</g>
</svg>
